<svg width="30" height="30" viewBox="0 0 30 30" fill="none" xmlns="http://www.w3.org/2000/svg">
<g clip-path="url(#clip0_1744_9458)">
<path d="M15.0018 29.982C23.2757 29.982 29.9831 23.2746 29.9831 15.0007C29.9831 6.72675 23.2757 0.0194092 15.0018 0.0194092C6.72785 0.0194092 0.0205078 6.72675 0.0205078 15.0007C0.0205078 23.2746 6.72785 29.982 15.0018 29.982Z" fill="#0B0E11"/>
<path d="M10.7976 13.2733L15.0001 9.07091L19.2046 13.2755L21.6499 10.8301L15.0001 4.18018L8.35227 10.828L10.7976 13.2733ZM6.62556 12.5545L9.07084 14.9998L6.62543 17.4452L4.18018 14.9999L6.62556 12.5545ZM10.7976 16.7266L15.0001 20.9289L19.2046 16.7245L21.6512 19.1686L21.6499 19.1698L15.0001 25.8198L8.35218 19.172L8.34878 19.1687L10.7976 16.7266ZM25.82 15.0002L23.3748 17.4455L20.9295 15.0002L23.3748 12.5549L25.82 15.0002Z" fill="#F0B90B"/>
<path d="M17.4829 14.9987H17.484L15.0026 12.5173L12.52 14.9999L12.5234 15.0034L15.0026 17.4826L17.4851 14.9999L17.4829 14.9987Z" fill="#F0B90B"/>
</g>
<defs>
<clipPath id="clip0_1744_9458">
<rect width="30" height="30" fill="white" transform="translate(0.000488281)"/>
</clipPath>
</defs>
</svg>
